<svg width="500" height="500" viewBox="0 0 500 500" fill="none" xmlns="http://www.w3.org/2000/svg">
<path d="M385.68 67H113.5C96.6662 67.0185 80.527 73.7133 68.6227 85.6156C56.7185 97.518 50.0212 113.656 50 130.49V294.56C50.0212 311.394 56.7185 327.532 68.6227 339.434C80.527 351.337 96.6662 358.031 113.5 358.05H189.09L150.48 421.75C149.836 422.813 149.486 424.028 149.466 425.27C149.447 426.513 149.758 427.739 150.369 428.821C150.98 429.903 151.868 430.803 152.942 431.429C154.016 432.054 155.237 432.383 156.48 432.38H347.93C349.144 432.381 350.338 432.065 351.394 431.465C352.45 430.865 353.331 430 353.951 428.956C354.572 427.912 354.91 426.724 354.932 425.51C354.955 424.296 354.661 423.096 354.08 422.03L319.18 358.03H385.68C402.514 358.011 418.653 351.317 430.557 339.414C442.462 327.512 449.159 311.374 449.18 294.54V130.49C449.159 113.656 442.462 97.518 430.557 85.6156C418.653 73.7133 402.514 67.0185 385.68 67ZM113.5 81H162.4V287.56H64V130.49C64.0159 117.368 69.2365 104.787 78.5164 95.5093C87.7963 86.2313 100.378 81.0132 113.5 81ZM336.14 418.38H168.9L205.46 358.05H303.23L336.14 418.38ZM385.68 344.05H113.5C101.59 344.037 90.0828 339.736 81.0846 331.933C72.0864 324.13 66.199 313.348 64.5 301.56H434.67C432.971 313.347 427.085 324.127 418.089 331.93C409.093 339.732 397.588 344.035 385.68 344.05ZM435.18 287.56H176.4V81H385.68C398.802 81.0132 411.384 86.2313 420.664 95.5093C429.944 104.787 435.164 117.368 435.18 130.49V287.56Z" fill="#1EBBAA"/>
<path d="M381.92 107.69H194.51C192.653 107.69 190.873 108.428 189.56 109.74C188.248 111.053 187.51 112.833 187.51 114.69V252.13C187.51 253.987 188.248 255.767 189.56 257.08C190.873 258.393 192.653 259.13 194.51 259.13H381.92C383.777 259.13 385.557 258.393 386.87 257.08C388.183 255.767 388.92 253.987 388.92 252.13V114.69C388.92 112.833 388.183 111.053 386.87 109.74C385.557 108.428 383.777 107.69 381.92 107.69ZM374.92 121.69V182.97L359.35 165.29C358.231 164.02 356.689 163.198 355.01 162.977C353.331 162.757 351.63 163.152 350.22 164.09L304.01 194.9L268.13 154.04C267.015 152.768 265.477 151.942 263.801 151.716C262.124 151.49 260.422 151.878 259.01 152.81L201.51 190.81V121.69H374.92ZM201.51 207.61L261.64 167.86L329.49 245.13H201.49L201.51 207.61ZM348.12 245.13L313.33 205.51L352.89 179.14L373.59 202.69C373.975 203.122 374.411 203.505 374.89 203.83V245.12L348.12 245.13Z" fill="#1EBBAA"/>
<path d="M90 148.76H120.73V150.76C120.73 152.617 121.467 154.397 122.78 155.71C124.093 157.023 125.873 157.76 127.73 157.76C129.587 157.76 131.367 157.023 132.68 155.71C133.993 154.397 134.73 152.617 134.73 150.76V148.76H142.37C144.227 148.76 146.007 148.023 147.32 146.71C148.632 145.397 149.37 143.617 149.37 141.76C149.37 139.904 148.632 138.123 147.32 136.81C146.007 135.498 144.227 134.76 142.37 134.76H134.73V129.76C134.73 127.904 133.993 126.123 132.68 124.81C131.367 123.498 129.587 122.76 127.73 122.76C125.873 122.76 124.093 123.498 122.78 124.81C121.467 126.123 120.73 127.904 120.73 129.76V134.76H90C88.1435 134.76 86.363 135.498 85.0502 136.81C83.7375 138.123 83 139.904 83 141.76C83 143.617 83.7375 145.397 85.0502 146.71C86.363 148.023 88.1435 148.76 90 148.76Z" fill="#1EBBAA"/>
<path d="M90 200.29H103.08V202.58C103.08 204.437 103.817 206.217 105.13 207.53C106.443 208.842 108.223 209.58 110.08 209.58C111.937 209.58 113.717 208.842 115.03 207.53C116.343 206.217 117.08 204.437 117.08 202.58V200.29H142.37C144.227 200.29 146.007 199.552 147.32 198.24C148.632 196.927 149.37 195.147 149.37 193.29C149.37 191.433 148.632 189.653 147.32 188.34C146.007 187.027 144.227 186.29 142.37 186.29H117.08V181.55C117.08 179.693 116.343 177.913 115.03 176.6C113.717 175.287 111.937 174.55 110.08 174.55C108.223 174.55 106.443 175.287 105.13 176.6C103.817 177.913 103.08 179.693 103.08 181.55V186.29H90C88.1435 186.29 86.363 187.027 85.0502 188.34C83.7375 189.653 83 191.433 83 193.29C83 195.147 83.7375 196.927 85.0502 198.24C86.363 199.552 88.1435 200.29 90 200.29Z" fill="#1EBBAA"/>
<path d="M90 251.81H121.66V253.81C121.66 255.667 122.397 257.447 123.71 258.76C125.023 260.072 126.803 260.81 128.66 260.81C130.517 260.81 132.297 260.072 133.61 258.76C134.922 257.447 135.66 255.667 135.66 253.81V251.81H142.37C144.227 251.81 146.007 251.073 147.32 249.76C148.632 248.447 149.37 246.667 149.37 244.81C149.37 242.953 148.632 241.173 147.32 239.86C146.007 238.548 144.227 237.81 142.37 237.81H135.66V232.81C135.66 230.953 134.922 229.173 133.61 227.86C132.297 226.548 130.517 225.81 128.66 225.81C126.803 225.81 125.023 226.548 123.71 227.86C122.397 229.173 121.66 230.953 121.66 232.81V237.81H90C88.1435 237.81 86.363 238.548 85.0502 239.86C83.7375 241.173 83 242.953 83 244.81C83 246.667 83.7375 248.447 85.0502 249.76C86.363 251.073 88.1435 251.81 90 251.81Z" fill="#1EBBAA"/>
<path d="M311.59 172.41C315.925 172.41 320.163 171.124 323.768 168.716C327.373 166.307 330.182 162.884 331.841 158.878C333.5 154.873 333.935 150.466 333.089 146.214C332.243 141.962 330.155 138.056 327.09 134.99C324.024 131.925 320.118 129.837 315.866 128.991C311.614 128.145 307.207 128.579 303.202 130.239C299.196 131.898 295.773 134.707 293.364 138.312C290.956 141.917 289.67 146.155 289.67 150.49C289.678 156.301 291.99 161.872 296.099 165.981C300.208 170.09 305.779 172.402 311.59 172.41ZM311.59 142.57C313.156 142.57 314.688 143.035 315.99 143.905C317.292 144.775 318.308 146.012 318.907 147.459C319.507 148.906 319.663 150.499 319.358 152.035C319.052 153.571 318.298 154.983 317.19 156.09C316.083 157.198 314.671 157.952 313.135 158.258C311.599 158.563 310.006 158.407 308.559 157.807C307.112 157.208 305.875 156.193 305.005 154.89C304.134 153.588 303.67 152.056 303.67 150.49C303.673 148.39 304.508 146.377 305.993 144.893C307.477 143.408 309.49 142.573 311.59 142.57Z" fill="#1EBBAA"/>
</svg>
