<svg width="500" height="500" viewBox="0 0 500 500" fill="none" xmlns="http://www.w3.org/2000/svg">
<path d="M448.16 115V133.25H51.0556V115.35C51.0409 112.018 51.7594 108.715 53.1694 105.634C54.5795 102.552 56.6534 99.7524 59.2714 97.3958C61.8894 95.0392 64.9999 93.1724 68.4233 91.9032C71.8467 90.6339 75.5155 89.9872 79.2179 90.0005H419.831C427.262 89.9602 434.41 92.5654 439.716 97.2483C445.022 101.931 448.058 108.312 448.16 115Z" stroke="#9C9DD4" stroke-width="10" stroke-miterlimit="10"/>
<path d="M51 386.45C51.0147 392.44 53.6646 398.181 58.3699 402.417C63.0753 406.652 69.4528 409.037 76.1072 409.05H423.053C429.707 409.037 436.085 406.652 440.79 402.417C445.495 398.181 448.145 392.44 448.16 386.45V148.7H51V386.45Z" stroke="#9C9DD4" stroke-width="10" stroke-miterlimit="10"/>
<path d="M76.1072 409.05H423.053C429.707 409.037 436.085 406.652 440.79 402.417C445.495 398.181 448.145 392.44 448.16 386.45V148.7" stroke="#9C9DD4" stroke-width="10" stroke-miterlimit="10"/>
<path d="M70.6636 112.8H92.7712" stroke="#9C9DD4" stroke-width="10" stroke-miterlimit="10"/>
<path d="M101.27 112.8H123.377" stroke="#9C9DD4" stroke-width="10" stroke-miterlimit="10"/>
<path d="M131.932 112.8H153.984" stroke="#9C9DD4" stroke-width="10" stroke-miterlimit="10"/>
<path d="M107.324 174.1V228.65" stroke="#9C9DD4" stroke-width="10" stroke-miterlimit="10"/>
<path d="M183.59 174.1V228.65" stroke="#9C9DD4" stroke-width="10" stroke-miterlimit="10"/>
<path d="M204.031 174.1V228.65" stroke="#9C9DD4" stroke-width="10" stroke-miterlimit="10"/>
<path d="M224.473 174.1V228.65" stroke="#9C9DD4" stroke-width="10" stroke-miterlimit="10"/>
<path d="M163.094 190.65C163.094 181.869 155.185 174.75 145.43 174.75C135.674 174.75 127.766 181.869 127.766 190.65V212.1C127.766 220.882 135.674 228 145.43 228C155.185 228 163.094 220.882 163.094 212.1V190.65Z" stroke="#9C9DD4" stroke-width="10" stroke-miterlimit="10"/>
<path d="M280.242 190.65C280.242 181.869 272.333 174.75 262.578 174.75C252.822 174.75 244.914 181.869 244.914 190.65V212.1C244.914 220.882 252.822 228 262.578 228C272.333 228 280.242 220.882 280.242 212.1V190.65Z" stroke="#9C9DD4" stroke-width="10" stroke-miterlimit="10"/>
<path d="M336.067 190.65C336.067 181.869 328.158 174.75 318.403 174.75C308.647 174.75 300.739 181.869 300.739 190.65V212.1C300.739 220.882 308.647 228 318.403 228C328.158 228 336.067 220.882 336.067 212.1V190.65Z" stroke="#9C9DD4" stroke-width="10" stroke-miterlimit="10"/>
<path d="M391.835 190.65C391.835 181.869 383.927 174.75 374.171 174.75C364.416 174.75 356.508 181.869 356.508 190.65V212.1C356.508 220.882 364.416 228 374.171 228C383.927 228 391.835 220.882 391.835 212.1V190.65Z" stroke="#9C9DD4" stroke-width="10" stroke-miterlimit="10"/>
<path d="M391.835 294.5V239.95" stroke="#9C9DD4" stroke-width="10" stroke-miterlimit="10"/>
<path d="M316.847 294.5V239.95" stroke="#9C9DD4" stroke-width="10" stroke-miterlimit="10"/>
<path d="M297.017 294.5V239.95" stroke="#9C9DD4" stroke-width="10" stroke-miterlimit="10"/>
<path d="M277.187 294.5V239.95" stroke="#9C9DD4" stroke-width="10" stroke-miterlimit="10"/>
<path d="M202.143 294.5V239.95" stroke="#9C9DD4" stroke-width="10" stroke-miterlimit="10"/>
<path d="M182.313 294.5V239.95" stroke="#9C9DD4" stroke-width="10" stroke-miterlimit="10"/>
<path d="M162.483 294.5V239.95" stroke="#9C9DD4" stroke-width="10" stroke-miterlimit="10"/>
<path d="M336.677 278C336.677 286.782 344.586 293.9 354.341 293.9C364.097 293.9 372.005 286.782 372.005 278V256.55C372.005 247.769 364.097 240.65 354.341 240.65C344.586 240.65 336.677 247.769 336.677 256.55V278Z" stroke="#9C9DD4" stroke-width="10" stroke-miterlimit="10"/>
<path d="M222.029 278C222.029 286.782 229.937 293.9 239.693 293.9C249.448 293.9 257.356 286.782 257.356 278V256.55C257.356 247.769 249.448 240.65 239.693 240.65C229.937 240.65 222.029 247.769 222.029 256.55V278Z" stroke="#9C9DD4" stroke-width="10" stroke-miterlimit="10"/>
<path d="M107.325 278C107.325 286.782 115.233 293.9 124.988 293.9C134.744 293.9 142.652 286.782 142.652 278V256.55C142.652 247.769 134.744 240.65 124.988 240.65C115.233 240.65 107.325 247.769 107.325 256.55V278Z" stroke="#9C9DD4" stroke-width="10" stroke-miterlimit="10"/>
<path d="M107.324 310.25V364.8" stroke="#9C9DD4" stroke-width="10" stroke-miterlimit="10"/>
<path d="M183.59 310.25V364.8" stroke="#9C9DD4" stroke-width="10" stroke-miterlimit="10"/>
<path d="M204.031 310.25V364.8" stroke="#9C9DD4" stroke-width="10" stroke-miterlimit="10"/>
<path d="M224.473 310.25V364.8" stroke="#9C9DD4" stroke-width="10" stroke-miterlimit="10"/>
<path d="M163.094 326.8C163.094 318.019 155.185 310.9 145.43 310.9C135.674 310.9 127.766 318.019 127.766 326.8V348.25C127.766 357.032 135.674 364.15 145.43 364.15C155.185 364.15 163.094 357.032 163.094 348.25V326.8Z" stroke="#9C9DD4" stroke-width="10" stroke-miterlimit="10"/>
<path d="M336.067 326.8C336.067 318.019 328.158 310.9 318.403 310.9C308.647 310.9 300.739 318.019 300.739 326.8V348.25C300.739 357.032 308.647 364.15 318.403 364.15C328.158 364.15 336.067 357.032 336.067 348.25V326.8Z" stroke="#9C9DD4" stroke-width="10" stroke-miterlimit="10"/>
<path d="M391.835 326.8C391.835 318.019 383.927 310.9 374.171 310.9C364.416 310.9 356.508 318.019 356.508 326.8V348.25C356.508 357.032 364.416 364.15 374.171 364.15C383.927 364.15 391.835 357.032 391.835 348.25V326.8Z" stroke="#9C9DD4" stroke-width="10" stroke-miterlimit="10"/>
<path d="M280.242 326.8C280.242 318.019 272.333 310.9 262.578 310.9C252.822 310.9 244.914 318.019 244.914 326.8V348.25C244.914 357.032 252.822 364.15 262.578 364.15C272.333 364.15 280.242 357.032 280.242 348.25V326.8Z" stroke="#9C9DD4" stroke-width="10" stroke-miterlimit="10"/>
</svg>
